<svg width="900" height="600" xmlns="http://www.w3.org/2000/svg">
  <defs>
    <style>
      .bg { fill: #1e1e1e; }
      .table-border { fill: none; stroke: #4a90e2; stroke-width: 2; }
      .table-header { fill: #2d3748; stroke: #4a90e2; stroke-width: 1; }
      .table-row { fill: #f8f9fa; stroke: #4a90e2; stroke-width: 1; }
      .table-title { font-family: Arial, sans-serif; font-size: 14px; font-weight: bold; text-anchor: middle; fill: #4a90e2; }
      .header-text { font-family: Arial, sans-serif; font-size: 12px; font-weight: bold; text-anchor: middle; fill: #e2e8f0; }
      .cell-text { font-family: Arial, sans-serif; font-size: 11px; text-anchor: middle; fill: #212529; }
      .fk-arrow { stroke: #4a90e2; stroke-width: 2; fill: none; stroke-dasharray: 5,5; marker-end: url(#arrowhead); }
      .constraint-text { font-family: Arial, sans-serif; font-size: 10px; text-anchor: start; fill: #81c784; }
      .state-title { font-family: Arial, sans-serif; font-size: 16px; font-weight: bold; text-anchor: middle; fill: #4a90e2; }
    </style>
    <defs>
      <marker id="arrowhead" markerWidth="10" markerHeight="7" refX="9" refY="3.5" orient="auto">
        <polygon points="0 0, 10 3.5, 0 7" fill="#4a90e2" />
      </marker>
    </defs>
  </defs>
  
  <!-- Dark background -->
  <rect x="0" y="0" width="900" height="600" class="bg" />
  
  <!-- State title -->
  <text x="450" y="30" class="state-title">Initial State (Valid Data)</text>
  
  <!-- Users Table -->
  <rect x="50" y="70" width="240" height="140" class="table-border" />
  <text x="170" y="60" class="table-title">Users</text>
  
  <!-- Users Header -->
  <rect x="50" y="70" width="60" height="30" class="table-header" />
  <rect x="110" y="70" width="80" height="30" class="table-header" />
  <rect x="190" y="70" width="100" height="30" class="table-header" />
  
  <text x="80" y="90" class="header-text">UserID</text>
  <text x="150" y="90" class="header-text">Name</text>
  <text x="240" y="90" class="header-text">DeptID</text>
  
  <!-- Users Rows -->
  <rect x="50" y="100" width="60" height="30" class="table-row" />
  <rect x="110" y="100" width="80" height="30" class="table-row" />
  <rect x="190" y="100" width="100" height="30" class="table-row" />
  
  <text x="80" y="120" class="cell-text">1</text>
  <text x="150" y="120" class="cell-text">Bob</text>
  <text x="240" y="120" class="cell-text">1</text>
  
  <rect x="50" y="130" width="60" height="30" class="table-row" />
  <rect x="110" y="130" width="80" height="30" class="table-row" />
  <rect x="190" y="130" width="100" height="30" class="table-row" />
  
  <text x="80" y="150" class="cell-text">2</text>
  <text x="150" y="150" class="cell-text">Sue</text>
  <text x="240" y="150" class="cell-text">2</text>
  
  <rect x="50" y="160" width="60" height="30" class="table-row" />
  <rect x="110" y="160" width="80" height="30" class="table-row" />
  <rect x="190" y="160" width="100" height="30" class="table-row" />
  
  <text x="80" y="180" class="cell-text">3</text>
  <text x="150" y="180" class="cell-text">Tom</text>
  <text x="240" y="180" class="cell-text">1</text>
  
  <rect x="50" y="190" width="60" height="20" class="table-row" />
  <rect x="110" y="190" width="80" height="20" class="table-row" />
  <rect x="190" y="190" width="100" height="20" class="table-row" />
  
  <!-- Constraint -->
  <text x="50" y="230" class="constraint-text">Constraint: Name length = 3</text>
  
  <!-- Departments Table -->
  <rect x="350" y="70" width="200" height="110" class="table-border" />
  <text x="450" y="60" class="table-title">Departments</text>
  
  <!-- Departments Header -->
  <rect x="350" y="70" width="80" height="30" class="table-header" />
  <rect x="430" y="70" width="120" height="30" class="table-header" />
  
  <text x="390" y="90" class="header-text">DeptID</text>
  <text x="490" y="90" class="header-text">DeptName</text>
  
  <!-- Departments Rows -->
  <rect x="350" y="100" width="80" height="30" class="table-row" />
  <rect x="430" y="100" width="120" height="30" class="table-row" />
  
  <text x="390" y="120" class="cell-text">1</text>
  <text x="490" y="120" class="cell-text">IT</text>
  
  <rect x="350" y="130" width="80" height="30" class="table-row" />
  <rect x="430" y="130" width="120" height="30" class="table-row" />
  
  <text x="390" y="150" class="cell-text">2</text>
  <text x="490" y="150" class="cell-text">HR</text>
  
  <rect x="350" y="160" width="80" height="20" class="table-row" />
  <rect x="430" y="160" width="120" height="20" class="table-row" />
  
  <!-- Projects Table -->
  <rect x="300" y="300" width="300" height="140" class="table-border" />
  <text x="450" y="290" class="table-title">Projects</text>
  
  <!-- Projects Header -->
  <rect x="300" y="300" width="80" height="30" class="table-header" />
  <rect x="380" y="300" width="120" height="30" class="table-header" />
  <rect x="500" y="300" width="100" height="30" class="table-header" />
  
  <text x="340" y="320" class="header-text">ProjectID</text>
  <text x="440" y="320" class="header-text">ProjectName</text>
  <text x="550" y="320" class="header-text">UserID</text>
  
  <!-- Projects Rows -->
  <rect x="300" y="330" width="80" height="30" class="table-row" />
  <rect x="380" y="330" width="120" height="30" class="table-row" />
  <rect x="500" y="330" width="100" height="30" class="table-row" />
  
  <text x="340" y="350" class="cell-text">1</text>
  <text x="440" y="350" class="cell-text">Website</text>
  <text x="550" y="350" class="cell-text">1</text>
  
  <rect x="300" y="360" width="80" height="30" class="table-row" />
  <rect x="380" y="360" width="120" height="30" class="table-row" />
  <rect x="500" y="360" width="100" height="30" class="table-row" />
  
  <text x="340" y="380" class="cell-text">2</text>
  <text x="440" y="380" class="cell-text">Mobile App</text>
  <text x="550" y="380" class="cell-text">2</text>
  
  <rect x="300" y="390" width="80" height="30" class="table-row" />
  <rect x="380" y="390" width="120" height="30" class="table-row" />
  <rect x="500" y="390" width="100" height="30" class="table-row" />
  
  <text x="340" y="410" class="cell-text">3</text>
  <text x="440" y="410" class="cell-text">Database</text>
  <text x="550" y="410" class="cell-text">3</text>
  
  <rect x="300" y="420" width="80" height="20" class="table-row" />
  <rect x="380" y="420" width="120" height="20" class="table-row" />
  <rect x="500" y="420" width="100" height="20" class="table-row" />
  
  <!-- Foreign Key Arrows -->
  <!-- Users.DeptID -> Departments.DeptID -->
  <line x1="290" y1="135" x2="350" y2="135" class="fk-arrow" />
  
  <!-- Projects.UserID -> Users.UserID -->
  <line x1="550" y1="350" x2="80" y2="120" class="fk-arrow" />
  <line x1="550" y1="380" x2="80" y2="150" class="fk-arrow" />
  <line x1="550" y1="410" x2="80" y2="180" class="fk-arrow" />
  
  <!-- FK Labels -->
  <text x="300" y="125" style="font-family: Arial, sans-serif; font-size: 9px; fill: #4a90e2;">FK</text>
  <text x="350" y="280" style="font-family: Arial, sans-serif; font-size: 9px; fill: #4a90e2;">FK</text>
</svg>
