<svg width="800" height="280" xmlns="http://www.w3.org/2000/svg">
  <defs>
    <style>
      .bg { fill: #1e1e1e; }
      .table-header { fill: #2d3748; stroke: #4a90e2; stroke-width: 2; }
      .table-row { fill: #2d2d2d; stroke: #555; stroke-width: 1; }
      .focused-row { fill: #3d2914; stroke: #e65100; stroke-width: 3; }
      .header-text { font-family: Arial, sans-serif; font-size: 14px; font-weight: bold; text-anchor: middle; fill: #e2e8f0; }
      .cell-text { font-family: Arial, sans-serif; font-size: 12px; text-anchor: middle; fill: #cbd5e0; }
      .focused-text { font-family: Arial, sans-serif; font-size: 14px; font-weight: bold; text-anchor: middle; fill: #f7fafc; }
      .memory-path { fill: none; stroke: #4a90e2; stroke-width: 2; }
      .title-text { font-family: Arial, sans-serif; font-size: 16px; font-weight: bold; text-anchor: middle; fill: #f7fafc; }
    </style>
    <marker id="arrowhead" markerWidth="6" markerHeight="4" refX="5" refY="2" orient="auto">
      <polygon points="0 0, 6 2, 0 4" fill="#4a90e2" />
    </marker>
  </defs>
  
  <!-- Dark background -->
  <rect x="0" y="0" width="800" height="280" class="bg" />
  
  <!-- Return arrows behind table -->
  <line x1="750" y1="122" x2="50" y2="122" class="memory-path" />
  <path d="M 50 122 Q 40 127, 50 132" class="memory-path" />
  <line x1="750" y1="167" x2="50" y2="167" class="memory-path" />
  <path d="M 50 167 Q 40 172, 50 177" class="memory-path" />
  <line x1="750" y1="202" x2="50" y2="202" class="memory-path" />
  <path d="M 50 202 Q 40 207, 50 212" class="memory-path" />
  <line x1="750" y1="232" x2="50" y2="232" class="memory-path" />
  
  <!-- Table Header -->
  <rect x="50" y="60" width="700" height="40" class="table-header" />
  
  <!-- Column headers -->
  <text x="120" y="85" class="header-text">ID</text>
  <text x="250" y="85" class="header-text">Name</text>
  <text x="350" y="85" class="header-text">Age</text>
  <text x="500" y="85" class="header-text">Studying</text>
  <text x="650" y="85" class="header-text">Updated</text>
  
  <!-- Column separators in header -->
  <line x1="180" y1="60" x2="180" y2="100" stroke="#4a90e2" stroke-width="1" />
  <line x1="300" y1="60" x2="300" y2="100" stroke="#4a90e2" stroke-width="1" />
  <line x1="400" y1="60" x2="400" y2="100" stroke="#4a90e2" stroke-width="1" />
  <line x1="550" y1="60" x2="550" y2="100" stroke="#4a90e2" stroke-width="1" />
  
  <!-- Row 1 -->
  <rect x="50" y="100" width="700" height="30" class="table-row" />
  <text x="120" y="120" class="cell-text">3489347</text>
  <text x="250" y="120" class="cell-text">Alice</text>
  <text x="350" y="120" class="cell-text">20</text>
  <text x="500" y="120" class="cell-text">Software Engineering</text>
  <text x="650" y="120" class="cell-text">2025-02-20</text>
  
  <!-- Row 2 (Focused/Enlarged) -->
  <rect x="50" y="130" width="700" height="50" class="focused-row" />
  <text x="120" y="160" class="focused-text">1347347</text>
  <text x="250" y="160" class="focused-text">Bob</text>
  <text x="350" y="160" class="focused-text">21</text>
  <text x="500" y="160" class="focused-text">Data Science</text>
  <text x="650" y="160" class="focused-text">2025-05-10</text>
  
  <!-- Column separators in focused row -->
  <line x1="180" y1="130" x2="180" y2="180" stroke="#e65100" stroke-width="2" />
  <line x1="300" y1="130" x2="300" y2="180" stroke="#e65100" stroke-width="2" />
  <line x1="400" y1="130" x2="400" y2="180" stroke="#e65100" stroke-width="2" />
  <line x1="550" y1="130" x2="550" y2="180" stroke="#e65100" stroke-width="2" />
  
  <!-- Row 3 -->
  <rect x="50" y="180" width="700" height="30" class="table-row" />
  <text x="120" y="200" class="cell-text">8945784</text>
  <text x="250" y="200" class="cell-text">Clair</text>
  <text x="350" y="200" class="cell-text">19</text>
  <text x="500" y="200" class="cell-text">null</text>
  <text x="650" y="200" class="cell-text">2025-08-01</text>
  
  <!-- Row 4 -->
  <rect x="50" y="210" width="700" height="30" class="table-row" />
  <text x="120" y="230" class="cell-text">2234567</text>
  <text x="250" y="230" class="cell-text">David</text>
  <text x="350" y="230" class="cell-text">22</text>
  <text x="500" y="230" class="cell-text">Mathematics</text>
  <text x="650" y="230" class="cell-text">2025-06-15</text>
  
  <!-- Column separators for other rows -->
  <line x1="180" y1="100" x2="180" y2="240" stroke="#555" stroke-width="1" />
  <line x1="300" y1="100" x2="300" y2="240" stroke="#555" stroke-width="1" />
  <line x1="400" y1="100" x2="400" y2="240" stroke="#555" stroke-width="1" />
  <line x1="550" y1="100" x2="550" y2="240" stroke="#555" stroke-width="1" />
  
  <!-- Forward arrows in front of table -->
  <line x1="50" y1="108" x2="750" y2="108" class="memory-path" />
  <path d="M 750 108 Q 760 113, 750 118" class="memory-path" />
  <line x1="50" y1="143" x2="750" y2="143" class="memory-path" />
  <path d="M 750 143 Q 760 148, 750 153" class="memory-path" />
  <line x1="50" y1="188" x2="750" y2="188" class="memory-path" />
  <path d="M 750 188 Q 760 193, 750 198" class="memory-path" />
  <line x1="50" y1="218" x2="750" y2="218" class="memory-path" />
  
  <!-- Arrow indicators - one per column -->
  <!-- Row 1 arrows -->
  <polygon points="118,106 126,108 118,110" fill="#4a90e2" />
  <polygon points="248,106 256,108 248,110" fill="#4a90e2" />
  <polygon points="348,106 356,108 348,110" fill="#4a90e2" />
  <polygon points="498,106 506,108 498,110" fill="#4a90e2" />
  <polygon points="648,106 656,108 648,110" fill="#4a90e2" />
  <polygon points="720,106 728,108 720,110" fill="#4a90e2" />
  
  <!-- Row 2 arrows -->
  <polygon points="118,141 126,143 118,145" fill="#4a90e2" />
  <polygon points="248,141 256,143 248,145" fill="#4a90e2" />
  <polygon points="348,141 356,143 348,145" fill="#4a90e2" />
  <polygon points="498,141 506,143 498,145" fill="#4a90e2" />
  <polygon points="648,141 656,143 648,145" fill="#4a90e2" />
  <polygon points="720,141 728,143 720,145" fill="#4a90e2" />
  
  <!-- Row 3 arrows -->
  <polygon points="118,186 126,188 118,190" fill="#4a90e2" />
  <polygon points="248,186 256,188 248,190" fill="#4a90e2" />
  <polygon points="348,186 356,188 348,190" fill="#4a90e2" />
  <polygon points="498,186 506,188 498,190" fill="#4a90e2" />
  <polygon points="648,186 656,188 648,190" fill="#4a90e2" />
  <polygon points="720,186 728,188 720,190" fill="#4a90e2" />
  
  <!-- Row 4 arrows -->
  <polygon points="118,216 126,218 118,220" fill="#4a90e2" />
  <polygon points="248,216 256,218 248,220" fill="#4a90e2" />
  <polygon points="348,216 356,218 348,220" fill="#4a90e2" />
  <polygon points="498,216 506,218 498,220" fill="#4a90e2" />
  <polygon points="648,216 656,218 648,220" fill="#4a90e2" />
  <polygon points="720,216 728,218 720,220" fill="#4a90e2" />
</svg>
